<svg width="200" height="51" viewBox="0 0 320 71.22053235959014" ><g id="SvgjsG3883" transform="matrix(1.147987090049967,0,0,1.147987090049967,-7.39992489632189,-22.086984510687493)" fill="#111111"><g xmlns="http://www.w3.org/2000/svg"><path d="M35.318,41.017H6.446l6.451,4.253l23.108-2.02c0.143-0.013,0.269,0.089,0.288,0.23c0.02,0.142-0.076,0.272-0.216,0.298   l-20.146,3.71l4.98,3.646l18.053-4.135C37.456,45.225,36.24,43.232,35.318,41.017z"></path><path d="M29.096,57.131l0.118,0.085c1.708,1.178,3.626,1.765,5.772,1.766c3.687,0.002,8.068-1.763,13.115-5.323   c-1.408-0.632-2.72-1.334-3.93-2.124L29.096,57.131z"></path><path d="M40.172,48.318L23.1,52.74l4.011,2.944l15.573-5.187C41.782,49.816,40.944,49.092,40.172,48.318z"></path><path d="M63.996,43.25l23.108,2.02l6.451-4.253H64.682c-0.923,2.215-2.139,4.208-3.645,5.982l18.053,4.135l4.981-3.646   l-20.147-3.71c-0.14-0.026-0.236-0.157-0.216-0.298C63.727,43.338,63.853,43.237,63.996,43.25z"></path><path d="M51.899,53.66c5.047,3.561,9.428,5.326,13.115,5.323c2.146-0.001,4.064-0.589,5.772-1.766l0.118-0.085l-15.075-5.595   C54.619,52.326,53.306,53.028,51.899,53.66z"></path><path d="M57.316,50.496l15.573,5.187L76.9,52.74l-17.072-4.422C59.056,49.092,58.218,49.816,57.316,50.496z"></path></g></g><g id="SvgjsG3884" transform="matrix(3.8314175685222294,0,0,3.8314175685222294,117.93103443078469,-25.593866873059813)" fill="#111111"><path d="M1.62 20 q-0.46 0 -0.77 -0.31 t-0.31 -0.77 l0 -11.16 q0 -0.46 0.31 -0.77 t0.77 -0.31 l2.88 0 q0.16 0 0.26 0.1 t0.1 0.26 l0 0.72 q0 0.16 -0.1 0.26 t-0.26 0.1 l-3.6 0 q0.46 0 0.77 0.31 t0.31 0.77 l0 3.96 q0 0.16 0.1 0.26 t0.26 0.1 l0.72 0 q0.16 0 0.26 0.1 t0.1 0.26 l0 0.72 q0 0.16 -0.1 0.26 t-0.26 0.1 l-2.16 0 q0.46 0 0.77 0.31 t0.31 0.77 l0 2.16 q0 0.16 0.1 0.26 t0.26 0.1 l2.16 0 q0.16 0 0.26 0.1 t0.1 0.26 l0 0.72 q0 0.16 -0.1 0.26 t-0.26 0.1 l-2.88 0 z M7.0200000000000005 20 q-0.46 0 -0.77 -0.31 t-0.31 -0.77 l0 -11.16 q0 -0.46 0.31 -0.77 t0.77 -0.31 l2.16 0 q0.46 0 0.77 0.31 t0.31 0.77 l0 1.44 q0 0.16 -0.1 0.26 t-0.26 0.1 l-0.72 0 q-0.16 0 -0.26 -0.1 t-0.1 -0.26 l0 -0.72 q0 -0.16 -0.1 -0.26 t-0.26 -0.1 l-2.16 0 q0.46 0 0.77 0.31 t0.31 0.77 l0 9 q0 0.16 0.1 0.26 t0.26 0.1 l0.72 0 q0.16 0 0.26 -0.1 t0.1 -0.26 l0 -0.72 q0 -0.16 0.1 -0.26 t0.26 -0.1 l0.72 0 q0.16 0 0.26 0.1 t0.1 0.26 l0 1.44 q0 0.46 -0.31 0.77 t-0.77 0.31 l-2.16 0 z M14.58 6.68 q0.46 0 0.77 0.31 t0.31 0.77 l0 11.16 q0 0.46 -0.31 0.77 t-0.77 0.31 l-2.16 0 q-0.46 0 -0.77 -0.31 t-0.31 -0.77 l0 -11.16 q0 -0.46 0.31 -0.77 t0.77 -0.31 l2.16 0 z M14.22 8.48 q0 -0.16 -0.1 -0.26 t-0.26 -0.1 l-2.16 0 q0.46 0 0.77 0.31 t0.31 0.77 l0 9 q0 0.16 0.1 0.26 t0.26 0.1 l0.72 0 q0.16 0 0.26 -0.1 t0.1 -0.26 l0 -9.72 z M16.740000000000002 7.039999999999999 q0 -0.16 0.1 -0.26 t0.26 -0.1 l2.16 0 q0.46 0 0.77 0.31 t0.31 0.77 q0 -0.46 0.31 -0.77 t0.77 -0.31 l1.44 0 q0.46 0 0.77 0.31 t0.31 0.77 l0 11.88 q0 0.16 -0.1 0.26 t-0.26 0.1 l-0.72 0 q-0.16 0 -0.26 -0.1 t-0.1 -0.26 l0 -11.16 q0 -0.16 -0.1 -0.26 t-0.26 -0.1 l-2.16 0 q0.46 0 0.77 0.31 t0.31 0.77 l0 10.44 q0 0.16 -0.1 0.26 t-0.26 0.1 l-0.72 0 q-0.16 0 -0.26 -0.1 t-0.1 -0.26 l0 -11.16 q0 -0.16 -0.1 -0.26 t-0.26 -0.1 l-2.16 0 q0.46 0 0.77 0.31 t0.31 0.77 l0 10.44 q0 0.16 -0.1 0.26 t-0.26 0.1 l-0.72 0 q-0.16 0 -0.26 -0.1 t-0.1 -0.26 l0 -12.6 z M25.020000000000003 7.039999999999999 q0 -0.16 0.1 -0.26 t0.26 -0.1 l2.16 0 q0.46 0 0.77 0.31 t0.31 0.77 q0 -0.46 0.31 -0.77 t0.77 -0.31 l1.44 0 q0.46 0 0.77 0.31 t0.31 0.77 l0 11.88 q0 0.16 -0.1 0.26 t-0.26 0.1 l-0.72 0 q-0.16 0 -0.26 -0.1 t-0.1 -0.26 l0 -11.16 q0 -0.16 -0.1 -0.26 t-0.26 -0.1 l-2.16 0 q0.46 0 0.77 0.31 t0.31 0.77 l0 10.44 q0 0.16 -0.1 0.26 t-0.26 0.1 l-0.72 0 q-0.16 0 -0.26 -0.1 t-0.1 -0.26 l0 -11.16 q0 -0.16 -0.1 -0.26 t-0.26 -0.1 l-2.16 0 q0.46 0 0.77 0.31 t0.31 0.77 l0 10.44 q0 0.16 -0.1 0.26 t-0.26 0.1 l-0.72 0 q-0.16 0 -0.26 -0.1 t-0.1 -0.26 l0 -12.6 z M40.86000000000001 6.68 q0.46 0 0.77 0.31 t0.31 0.77 l0 11.88 q0 0.16 -0.1 0.26 t-0.26 0.1 l-0.72 0 q-0.16 0 -0.26 -0.1 t-0.1 -0.26 l0 -4.32 q0 -0.16 -0.1 -0.26 t-0.26 -0.1 l-2.16 0 q0.46 0 0.77 0.31 t0.31 0.77 l0 3.6 q0 0.16 -0.1 0.26 t-0.26 0.1 l-0.72 0 q-0.16 0 -0.26 -0.1 t-0.1 -0.26 l0 -11.88 q0 -0.46 0.31 -0.77 t0.77 -0.31 l2.16 0 z M40.50000000000001 8.48 q0 -0.16 -0.1 -0.26 t-0.26 -0.1 l-2.16 0 q0.46 0 0.77 0.31 t0.31 0.77 l0 3.96 q0 0.16 0.1 0.26 t0.26 0.1 l0.72 0 q0.16 0 0.26 -0.1 t0.1 -0.26 l0 -4.68 z M46.260000000000005 6.68 q0.46 0 0.77 0.31 t0.31 0.77 l0 6.12 q0 0.46 -0.31 0.77 t-0.77 0.31 l-2.88 0 q0.46 0 0.77 0.31 t0.31 0.77 l0 3.6 q0 0.16 -0.1 0.26 t-0.26 0.1 l-0.72 0 q-0.16 0 -0.26 -0.1 t-0.1 -0.26 l0 -12.6 q0 -0.16 0.1 -0.26 t0.26 -0.1 l2.88 0 z M45.900000000000006 8.48 q0 -0.16 -0.1 -0.26 t-0.26 -0.1 l-2.16 0 q0.46 0 0.77 0.31 t0.31 0.77 l0 3.96 q0 0.16 0.1 0.26 t0.26 0.1 l0.72 0 q0.16 0 0.26 -0.1 t0.1 -0.26 l0 -4.68 z M51.660000000000004 6.68 q0.46 0 0.77 0.31 t0.31 0.77 l0 6.12 q0 0.46 -0.31 0.77 t-0.77 0.31 l-2.88 0 q0.46 0 0.77 0.31 t0.31 0.77 l0 3.6 q0 0.16 -0.1 0.26 t-0.26 0.1 l-0.72 0 q-0.16 0 -0.26 -0.1 t-0.1 -0.26 l0 -12.6 q0 -0.16 0.1 -0.26 t0.26 -0.1 l2.88 0 z M51.300000000000004 8.48 q0 -0.16 -0.1 -0.26 t-0.26 -0.1 l-2.16 0 q0.46 0 0.77 0.31 t0.31 0.77 l0 3.96 q0 0.16 0.1 0.26 t0.26 0.1 l0.72 0 q0.16 0 0.26 -0.1 t0.1 -0.26 l0 -4.68 z"></path></g><g transform="matrix(0.6759610973744055,0,0,0.6759610973744055,118.81030847506752,57.44444479541878)" fill="#111111"><path d="M3.7 13.84 l0 6.16 l-1.94 0 l0 -14.36 l6.64 0 c2.36 0 4.72 0.82 4.72 3.86 c0 2.12 -1.08 2.9 -2 3.44 c0.82 0.34 1.64 0.7 1.72 2.7 l0.12 2.6 c0.02 0.8 0.12 1.1 0.72 1.44 l0 0.32 l-2.38 0 c-0.28 -0.88 -0.34 -3.06 -0.34 -3.6 c0 -1.18 -0.24 -2.56 -2.56 -2.56 l-4.7 0 z M3.7 7.300000000000001 l0 4.88 l4.5 0 c1.42 0 2.92 -0.36 2.92 -2.48 c0 -2.22 -1.62 -2.4 -2.58 -2.4 l-4.84 0 z M30.092 18.28 l0 1.72 l-10.6 0 l0 -14.36 l10.46 0 l0 1.72 l-8.52 0 l0 4.4 l7.86 0 l0 1.72 l-7.86 0 l0 4.8 l8.66 0 z M43.984 15.82 l-5.76 0 l-1.5 4.18 l-2 0 l5.4 -14.36 l2.2 0 l5.2 14.36 l-2.12 0 z M38.824000000000005 14.1 l4.46 0 l-2.12 -6.32 l-0.04 0 z M64.596 9.96 l-1.88 0 c-0.54 -2.52 -2.64 -2.98 -4.02 -2.98 c-2.6 0 -4.7 1.92 -4.7 5.7 c0 3.38 1.2 5.98 4.76 5.98 c1.26 0 3.44 -0.6 4.1 -3.94 l1.88 0 c-0.8 5.42 -5.2 5.66 -6.28 5.66 c-3.26 0 -6.46 -2.12 -6.46 -7.64 c0 -4.42 2.52 -7.48 6.7 -7.48 c3.7 0 5.62 2.3 5.9 4.7 z M69.168 7.359999999999999 l0 -1.72 l11.66 0 l0 1.72 l-4.86 0 l0 12.64 l-1.94 0 l0 -12.64 l-4.86 0 z M98.45200000000001 14.219999999999999 l0 -4.32 l1.46 0 l0 4.32 l4.32 0 l0 1.46 l-4.32 0 l0 4.32 l-1.46 0 l0 -4.32 l-4.34 0 l0 -1.46 l4.34 0 z M120.896 13.48 l0 6.52 l-1.94 0 l0 -14.36 l9.94 0 l0 1.72 l-8 0 l0 4.4 l7.04 0 l0 1.72 l-7.04 0 z M136.548 5.640000000000001 l0 14.36 l-1.94 0 l0 -14.36 l1.94 0 z M145.38 13.84 l0 6.16 l-1.94 0 l0 -14.36 l6.64 0 c2.36 0 4.72 0.82 4.72 3.86 c0 2.12 -1.08 2.9 -2 3.44 c0.82 0.34 1.64 0.7 1.72 2.7 l0.12 2.6 c0.02 0.8 0.12 1.1 0.72 1.44 l0 0.32 l-2.38 0 c-0.28 -0.88 -0.34 -3.06 -0.34 -3.6 c0 -1.18 -0.24 -2.56 -2.56 -2.56 l-4.7 0 z M145.38 7.300000000000001 l0 4.88 l4.5 0 c1.42 0 2.92 -0.36 2.92 -2.48 c0 -2.22 -1.62 -2.4 -2.58 -2.4 l-4.84 0 z M171.772 18.28 l0 1.72 l-10.6 0 l0 -14.36 l10.46 0 l0 1.72 l-8.52 0 l0 4.4 l7.86 0 l0 1.72 l-7.86 0 l0 4.8 l8.66 0 z M179.54399999999998 7.300000000000001 l0 4.42 l3.5 0 c1.86 0 3 -0.56 3 -2.32 c0 -1.34 -0.82 -2.1 -2.98 -2.1 l-3.52 0 z M177.60399999999998 20 l0 -14.36 l6.32 0 c2.68 0 4.06 1.66 4.06 3.62 c0 0.94 -0.34 2.26 -1.92 3 c0.94 0.38 2.6 1.04 2.6 3.5 c0 2.3 -1.7 4.24 -4.88 4.24 l-6.18 0 z M179.54399999999998 13.3 l0 5.04 l4.14 0 c2.02 0 3.04 -1.02 3.04 -2.62 c0 -2.02 -1.78 -2.42 -3.36 -2.42 l-3.82 0 z M202.33599999999998 15.82 l-5.76 0 l-1.5 4.18 l-2 0 l5.4 -14.36 l2.2 0 l5.2 14.36 l-2.12 0 z M197.176 14.1 l4.46 0 l-2.12 -6.32 l-0.04 0 z M221.468 9.84 l-1.82 0 c-0.1 -2.22 -1.94 -2.92 -3.56 -2.92 c-1.22 0 -3.28 0.34 -3.28 2.52 c0 1.22 0.86 1.62 1.7 1.82 l4.1 0.94 c1.86 0.44 3.26 1.56 3.26 3.84 c0 3.4 -3.16 4.34 -5.62 4.34 c-2.66 0 -3.7 -0.8 -4.34 -1.38 c-1.22 -1.1 -1.46 -2.3 -1.46 -3.64 l1.82 0 c0 2.6 2.12 3.36 3.96 3.36 c1.4 0 3.76 -0.36 3.76 -2.42 c0 -1.5 -0.7 -1.98 -3.06 -2.54 l-2.94 -0.68 c-0.94 -0.22 -3.06 -0.88 -3.06 -3.38 c0 -2.24 1.46 -4.44 4.94 -4.44 c5.02 0 5.52 3 5.6 4.58 z M238.45999999999998 18.28 l0 1.72 l-10.6 0 l0 -14.36 l10.46 0 l0 1.72 l-8.52 0 l0 4.4 l7.86 0 l0 1.72 l-7.86 0 l0 4.8 l8.66 0 z"></path></g></svg>