<svg width="290" height="43.131803926761684" viewBox="0 0 290 43.131803926761684" class="css-1j8o68f"><defs id="SvgjsDefs5064"></defs><g id="SvgjsG5065" transform="matrix(0.8035909630349768,0,0,0.8035909630349768,-5.179947427425323,-17.96088915748124)" fill="#07a9f7"><g xmlns="http://www.w3.org/2000/svg"><path d="M35.318,41.017H6.446l6.451,4.253l23.108-2.02c0.143-0.013,0.269,0.089,0.288,0.23c0.02,0.142-0.076,0.272-0.216,0.298   l-20.146,3.71l4.98,3.646l18.053-4.135C37.456,45.225,36.24,43.232,35.318,41.017z"></path><path d="M29.096,57.131l0.118,0.085c1.708,1.178,3.626,1.765,5.772,1.766c3.687,0.002,8.068-1.763,13.115-5.323   c-1.408-0.632-2.72-1.334-3.93-2.124L29.096,57.131z"></path><path d="M40.172,48.318L23.1,52.74l4.011,2.944l15.573-5.187C41.782,49.816,40.944,49.092,40.172,48.318z"></path><path d="M63.996,43.25l23.108,2.02l6.451-4.253H64.682c-0.923,2.215-2.139,4.208-3.645,5.982l18.053,4.135l4.981-3.646   l-20.147-3.71c-0.14-0.026-0.236-0.157-0.216-0.298C63.727,43.338,63.853,43.237,63.996,43.25z"></path><path d="M51.899,53.66c5.047,3.561,9.428,5.326,13.115,5.323c2.146-0.001,4.064-0.589,5.772-1.766l0.118-0.085l-15.075-5.595   C54.619,52.326,53.306,53.028,51.899,53.66z"></path><path d="M57.316,50.496l15.573,5.187L76.9,52.74l-17.072-4.422C59.056,49.092,58.218,49.816,57.316,50.496z"></path></g></g><g  transform="matrix(1.6711229903911575,0,0,1.6711229903911575,87.99465273027202,-9.692513663010129)" fill="#000000"><path d="M4.12 17.32 l5.92 0 l0 2.68 l-6.32 0 l-2.52 0 l0 -14 l2.92 0 l5.74 0 l0 2.68 l-5.74 0 l0 2.96 l4.34 0 l0 2.64 l-4.34 0 l0 3.04 z M23.9 18.5 c-1.24 1.12 -2.9 1.7 -4.76 1.7 c-3.92 0 -7.3 -2.94 -7.3 -7.2 s3.38 -7.2 7.3 -7.2 c1.84 0 3.48 0.6 4.68 1.66 l-1.76 1.98 c-0.74 -0.52 -1.74 -0.9 -2.76 -0.9 c-2.52 0 -4.42 1.86 -4.42 4.46 s1.9 4.46 4.42 4.46 c1.06 0 2.1 -0.4 2.86 -1 z M32.760000000000005 5.800000000000001 c3.9 0 7.26 2.94 7.26 7.2 s-3.36 7.2 -7.26 7.2 s-7.26 -2.94 -7.26 -7.2 s3.36 -7.2 7.26 -7.2 z M32.760000000000005 17.46 c2.36 0 4.22 -1.86 4.22 -4.46 s-1.86 -4.46 -4.22 -4.46 s-4.22 1.86 -4.22 4.46 s1.86 4.46 4.22 4.46 z M57.120000000000005 6 l0 14 l-3 0 l0 -7.44 l-3.26 7.44 l-2.52 0 l-3.22 -7.4 l0 7.4 l-3 0 l0 -14 l2.88 0 l4.62 10.1 l4.62 -10.1 l2.88 0 z M74.52000000000001 6 l0 14 l-3 0 l0 -7.44 l-3.26 7.44 l-2.52 0 l-3.22 -7.4 l0 7.4 l-3 0 l0 -14 l2.88 0 l4.62 10.1 l4.62 -10.1 l2.88 0 z M94.10000000000001 20 l-1.06 -2.5 l-6.76 0 l-1.06 2.5 l-3.1 0 l6.22 -14 l2.64 0 l6.24 14 l-3.12 0 z M87.30000000000001 15.120000000000001 l4.72 0 l-2.36 -5.54 z M103.72000000000001 6 c3.14 0 5.18 1.9 5.18 4.76 c0 2.82 -2.04 4.58 -5.18 4.58 l-1.98 0 l0 4.66 l-2.92 0 l0 -14 l4.9 0 z M103.54000000000002 12.82 c1.44 0 2.44 -0.56 2.44 -2.06 c0 -1.48 -1 -2.08 -2.44 -2.08 l-1.8 0 l0 4.14 l1.8 0 z M115.70000000000002 6 c3.14 0 5.18 1.9 5.18 4.76 c0 2.82 -2.04 4.58 -5.18 4.58 l-1.98 0 l0 4.66 l-2.92 0 l0 -14 l4.9 0 z M115.52000000000002 12.82 c1.44 0 2.44 -0.56 2.44 -2.06 c0 -1.48 -1 -2.08 -2.44 -2.08 l-1.8 0 l0 4.14 l1.8 0 z"></path></g><g  transform="matrix(0.6136964170696693,0,0,0.6136964170696693,88.80942854997728,30.63694450065265)" fill="#000000"><path d="M6.16 12.08 q1.54 0 2.38 -0.69 t0.84 -1.83 t-0.82 -1.82 t-2.44 -0.7 l-2.86 0 l0 5.04 l2.9 0 z M5.76 5.84 q4.9 0 4.94 3.72 q0 3.14 -3.62 3.64 l4.12 6.8 l-1.5 0 l-3.98 -6.72 l-2.46 0 l0 6.72 l-1.32 0 l0 -14.16 l3.82 0 z M30.905499999999996 5.84 l0 1.2 l-7.34 0 l0 5.04 l6.88 0 l0 1.2 l-6.88 0 l0 5.52 l7.66 0 l0 1.2 l-8.98 0 l0 -14.16 l8.66 0 z M44.211 15.04 l6.5 0 l-3.2 -7.76 z M48.251 5.84 l5.96 14.16 l-1.48 0 l-1.54 -3.76 l-7.5 0 l-1.6 3.76 l-1.38 0 l6.18 -14.16 l1.36 0 z M71.09649999999999 5.48 q3.14 0 4.88 2.22 l-1.08 0.9 q-0.6 -0.9 -1.6 -1.41 t-2.2 -0.51 q-2.64 0 -4.3 1.74 t-1.7 4.5 q0 2.74 1.67 4.47 t4.33 1.77 q1.14 0 2.32 -0.57 t1.86 -1.63 l1.08 0.82 q-1.88 2.58 -5.26 2.58 q-3.28 -0.02 -5.27 -2.12 t-2.05 -5.32 q0 -3.26 2.05 -5.33 t5.27 -2.11 z M96.52199999999999 5.84 l0 1.2 l-4.84 0 l0 12.96 l-1.32 0 l0 -12.96 l-4.84 0 l0 -1.2 l11 0 z M125.03299999999999 8.84 l0.96 0 l0 4.62 l4.62 0 l0 0.96 l-4.62 0 l0 4.62 l-0.96 0 l0 -4.62 l-4.62 0 l0 -0.96 l4.62 0 l0 -4.62 z M164.68399999999997 5.84 l0 1.2 l-7.16 0 l0 5.04 l6.66 0 l0 1.2 l-6.66 0 l0 6.72 l-1.32 0 l0 -14.16 l8.48 0 z M177.0895 5.84 l0 14.16 l-1.32 0 l0 -14.16 l1.32 0 z M193.635 12.08 q1.54 0 2.38 -0.69 t0.84 -1.83 t-0.82 -1.82 t-2.44 -0.7 l-2.86 0 l0 5.04 l2.9 0 z M193.23499999999999 5.84 q4.9 0 4.94 3.72 q0 3.14 -3.62 3.64 l4.12 6.8 l-1.5 0 l-3.98 -6.72 l-2.46 0 l0 6.72 l-1.32 0 l0 -14.16 l3.82 0 z M218.38049999999998 5.84 l0 1.2 l-7.34 0 l0 5.04 l6.88 0 l0 1.2 l-6.88 0 l0 5.52 l7.66 0 l0 1.2 l-8.98 0 l0 -14.16 l8.66 0 z M234.46599999999998 18.8 q1.7 0 2.6 -0.73 t0.9 -1.99 q0 -1.36 -0.93 -2.14 t-2.43 -0.78 l-3.26 0 l0 5.64 l3.12 0 z M234.166 11.96 q1.44 0 2.31 -0.62 t0.87 -1.76 q0 -2.48 -3 -2.54 l-3 0 l0 4.92 l2.82 0 z M234.206 5.84 q2.22 0 3.33 0.9 t1.13 2.84 q0 1.12 -0.66 1.91 t-1.88 1.03 l0 0.04 q1.38 0.08 2.26 1.04 t0.9 2.44 q0 1.88 -1.25 2.91 t-3.45 1.05 l-4.56 0 l0 -14.16 l4.18 0 z M252.73149999999998 15.04 l6.5 0 l-3.2 -7.76 z M256.7715 5.84 l5.96 14.16 l-1.48 0 l-1.54 -3.76 l-7.5 0 l-1.6 3.76 l-1.38 0 l6.18 -14.16 l1.36 0 z M277.257 5.48 q2.46 0 3.86 1.78 l-1.14 0.82 q-1.04 -1.4 -2.76 -1.4 q-1.4 0 -2.27 0.72 t-0.91 1.96 q0 1.08 0.66 1.75 t2.3 1.13 q2.16 0.64 2.88 1.13 t1.09 1.21 t0.37 1.8 q0 1.72 -1.23 2.83 t-3.17 1.15 q-3.06 0 -4.6 -2.14 l1.26 -0.84 q1.06 1.76 3.24 1.78 q1.42 0 2.3 -0.79 t0.88 -1.99 q0 -0.7 -0.25 -1.15 t-0.76 -0.78 t-1.3 -0.6 t-1.85 -0.63 q-1.6 -0.52 -2.37 -1.46 t-0.77 -2.4 q0 -1.72 1.29 -2.8 t3.25 -1.08 z M301.4425 5.84 l0 1.2 l-7.34 0 l0 5.04 l6.88 0 l0 1.2 l-6.88 0 l0 5.52 l7.66 0 l0 1.2 l-8.98 0 l0 -14.16 l8.66 0 z"></path></g></svg>